<svg xmlns="http://www.w3.org/2000/svg" width="760" height="420" viewBox="0 0 760 420">
<rect width="100%" height="100%" fill="white"/>
<text x="380.0" y="28" text-anchor="middle" font-family="Arial" font-size="18">Direction A outer best-to-second Expert error margin</text>
<line x1="70" y1="55" x2="70" y2="355" stroke="#222"/>
<line x1="70" y1="355" x2="740" y2="355" stroke="#222"/>
<rect x="70.00" y="55.00" width="15.75" height="300.00" fill="#4C78A8"/>
<rect x="86.75" y="185.44" width="15.75" height="169.56" fill="#4C78A8"/>
<rect x="103.50" y="255.33" width="15.75" height="99.67" fill="#4C78A8"/>
<rect x="120.25" y="296.50" width="15.75" height="58.50" fill="#4C78A8"/>
<rect x="137.00" y="323.48" width="15.75" height="31.52" fill="#4C78A8"/>
<rect x="153.75" y="336.12" width="15.75" height="18.88" fill="#4C78A8"/>
<rect x="170.50" y="343.36" width="15.75" height="11.64" fill="#4C78A8"/>
<rect x="187.25" y="347.82" width="15.75" height="7.18" fill="#4C78A8"/>
<rect x="204.00" y="350.91" width="15.75" height="4.09" fill="#4C78A8"/>
<rect x="220.75" y="352.93" width="15.75" height="2.07" fill="#4C78A8"/>
<rect x="237.50" y="353.66" width="15.75" height="1.34" fill="#4C78A8"/>
<rect x="254.25" y="353.66" width="15.75" height="1.34" fill="#4C78A8"/>
<rect x="271.00" y="354.43" width="15.75" height="0.57" fill="#4C78A8"/>
<rect x="287.75" y="354.68" width="15.75" height="0.32" fill="#4C78A8"/>
<rect x="304.50" y="354.48" width="15.75" height="0.52" fill="#4C78A8"/>
<rect x="321.25" y="354.73" width="15.75" height="0.27" fill="#4C78A8"/>
<rect x="338.00" y="354.77" width="15.75" height="0.23" fill="#4C78A8"/>
<rect x="354.75" y="354.84" width="15.75" height="0.16" fill="#4C78A8"/>
<rect x="371.50" y="354.93" width="15.75" height="0.07" fill="#4C78A8"/>
<rect x="388.25" y="354.89" width="15.75" height="0.11" fill="#4C78A8"/>
<rect x="405.00" y="354.95" width="15.75" height="0.05" fill="#4C78A8"/>
<rect x="421.75" y="354.89" width="15.75" height="0.11" fill="#4C78A8"/>
<rect x="438.50" y="354.98" width="15.75" height="0.02" fill="#4C78A8"/>
<rect x="455.25" y="354.91" width="15.75" height="0.09" fill="#4C78A8"/>
<rect x="472.00" y="355.00" width="15.75" height="0.00" fill="#4C78A8"/>
<rect x="488.75" y="355.00" width="15.75" height="0.00" fill="#4C78A8"/>
<rect x="505.50" y="355.00" width="15.75" height="0.00" fill="#4C78A8"/>
<rect x="522.25" y="355.00" width="15.75" height="0.00" fill="#4C78A8"/>
<rect x="539.00" y="355.00" width="15.75" height="0.00" fill="#4C78A8"/>
<rect x="555.75" y="355.00" width="15.75" height="0.00" fill="#4C78A8"/>
<rect x="572.50" y="355.00" width="15.75" height="0.00" fill="#4C78A8"/>
<rect x="589.25" y="355.00" width="15.75" height="0.00" fill="#4C78A8"/>
<rect x="606.00" y="355.00" width="15.75" height="0.00" fill="#4C78A8"/>
<rect x="622.75" y="355.00" width="15.75" height="0.00" fill="#4C78A8"/>
<rect x="639.50" y="355.00" width="15.75" height="0.00" fill="#4C78A8"/>
<rect x="656.25" y="355.00" width="15.75" height="0.00" fill="#4C78A8"/>
<rect x="673.00" y="354.95" width="15.75" height="0.05" fill="#4C78A8"/>
<rect x="689.75" y="354.93" width="15.75" height="0.07" fill="#4C78A8"/>
<rect x="706.50" y="354.95" width="15.75" height="0.05" fill="#4C78A8"/>
<rect x="723.25" y="354.98" width="15.75" height="0.02" fill="#4C78A8"/>
<text x="70" y="378" font-family="Arial" font-size="12">2.384e-06</text>
<text x="740" y="378" text-anchor="end" font-family="Arial" font-size="12">1.894</text>
<text x="380.0" y="408" text-anchor="middle" font-family="Arial" font-size="13">second-best absolute error − best absolute error</text>
<text x="18" y="210.0" transform="rotate(-90 18 210.0)" text-anchor="middle" font-family="Arial" font-size="13">count</text>
</svg>